:SAMPLES-PER-SECOND 30
:FULLY-SPECIFIED
:DEGREES
403
root  -41.9744 33.3749 39.7169 -165.353 -52.1724 169.921
RightUpLeg  -26.6499 -11.9268 -7.95484
RightLeg  68.4087 -3.57924 -7.68195
RightFoot  0.339426 0.000553239 0.181275
RightToes  -17.627 -0.0686293 -0.157474
Spine  -0.300479 -0.646955 -2.18551
Spine1  -0.64721 -1.21362 -3.67633
HEad  -55.229 -34.017 12.3101
LeftShoulder1  -1.94126e-019 -3.10601e-018 -2.51263e-017
LeftArm  -14.5023 19.0067 -75.371
LeftForeArm  30.0553 -18.2539 -3.2746
LeftHand  -0.413199 -0.0372764 8.90928
RightShoulder  -4.96962e-017 0 -2.36833e-017
RightArm  -28.2317 -15.2439 78.2189
RightForeArm  46.3301 24.9202 2.93191
RightHand  -0.090185 -4.79155 -14.8406
LeftUpLeg  -18.5929 -0.0461119 -2.15654
LeftLeg  30.5484 5.34287 2.69612
LeftFoot  -3.88654 -0.0139055 -0.248314
LeftToes  -31.9063 1.34695e-006 1.12385e-007
404
root  -42.9349 33.6555 39.3789 -168.46 -48.285 173.263
RightUpLeg  -29.4068 -13.4484 -4.18004
RightLeg  67.4124 -5.04659 -10.2402
RightFoot  -0.581969 -0.00189121 0.367513
RightToes  -14.905 -0.0549139 -0.134649
Spine  -0.164511 -0.675553 -1.55206
Spine1  -0.381787 -1.2618 -2.427
HEad  -54.7965 -32.9584 11.4314
LeftShoulder1  -1.94126e-019 -3.10601e-018 -2.51263e-017
LeftArm  -15.9866 18.6296 -75.1687
LeftForeArm  32.7062 -16.137 -2.90056
LeftHand  -0.461487 -0.0354863 9.94864
RightShoulder  -4.96962e-017 0 -2.36833e-017
RightArm  -27.53 -15.7051 78.7033
RightForeArm  49.7552 22.6325 2.3223
RightHand  -0.209526 -3.68601 -13.5079
LeftUpLeg  -14.839 1.23077 -1.44141
LeftLeg  28.3171 8.69484 3.96145
LeftFoot  -3.95274 -0.0230785 -0.507251
LeftToes  -32.0432 1.34695e-006 1.12385e-007
405
root  -43.8113 33.882 39.0287 -169.992 -44.4009 175.787
RightUpLeg  -31.8426 -14.7885 -0.0937658
RightLeg  62.7308 -4.77174 -7.99892
RightFoot  -1.31585 -0.0023043 0.445858
RightToes  -16.1435 -0.0610198 -0.145115
Spine  -0.294829 -0.857326 -1.08659
Spine1  -0.632937 -1.64148 -1.48832
HEad  -54.4877 -31.529 10.8207
LeftShoulder1  -1.94126e-019 -3.10601e-018 -2.51263e-017
LeftArm  -15.0407 19.6624 -74.2604
LeftForeArm  33.1419 -16.6667 -3.00339
LeftHand  -0.475353 0.0881329 10.4739
RightShoulder  -4.96962e-017 0 -2.36833e-017
RightArm  -27.4517 -16.8667 79.3417
RightForeArm  52.3216 21.0524 1.91153
RightHand  -0.267165 -3.06952 -12.8922
LeftUpLeg  -12.282 2.19221 -0.977772
LeftLeg  26.3922 11.6084 4.81003
LeftFoot  -5.30875 -0.0550552 -1.02595
LeftToes  -25.9224 1.34695e-006 1.12385e-007
406
root  -44.6216 34.0517 38.6486 -170.576 -41.0735 177.43
RightUpLeg  -33.2676 -17.0007 4.19806
RightLeg  55.0662 -4.3324 -5.46685
RightFoot  -3.37511 0.000825907 0.625584
RightToes  -14.6656 -0.0537596 -0.13261
Spine  -0.419746 -1.34285 -0.732048
Spine1  -0.879744 -2.62664 -0.769499
HEad  -55.059 -29.8432 10.9311
LeftShoulder1  -1.94126e-019 -3.10601e-018 -2.51263e-017
LeftArm  -13.528 21.0191 -73.2409
LeftForeArm  32.5867 -17.115 -3.08997
LeftHand  -0.427049 0.518961 10.2046
RightShoulder  -4.96962e-017 0 -2.36833e-017
RightArm  -28.1046 -18.0925 79.8635
RightForeArm  52.0094 19.2428 1.58305
RightHand  -0.274526 -3.05293 -13.1748
LeftUpLeg  -10.1875 3.82776 -0.920956
LeftLeg  24.6441 13.6628 5.16726
LeftFoot  -5.47837 -0.0685264 -1.27066
LeftToes  -24.0465 1.34695e-006 1.12385e-007
407
root  -45.3943 34.1163 38.2135 -170.769 -38.4369 178.503
RightUpLeg  -33.4673 -20.4733 8.70052
RightLeg  45.101 -5.608 -4.95983
RightFoot  -3.61436 0.00228566 0.67
RightToes  -13.6821 -0.0491083 -0.124187
Spine  -0.536823 -1.97448 -0.596036
Spine1  -1.12587 -3.89269 -0.527856
HEad  -56.4673 -28.1917 12.1391
LeftShoulder1  -1.94126e-019 -3.10601e-018 -2.51263e-017
LeftArm  -11.5124 22.3447 -71.5655
LeftForeArm  31.0149 -18.149 -3.2808
LeftHand  -0.400485 0.561237 9.64821
RightShoulder  -4.96962e-017 0 -2.36833e-017
RightArm  -29.9514 -19.7029 80.4333
RightForeArm  51.0881 17.3034 1.2606
RightHand  -0.268307 -3.12427 -13.2604
LeftUpLeg  -8.70289 5.64783 -0.812319
LeftLeg  24.0229 14.8062 5.40859
LeftFoot  -5.62878 -0.0785415 -1.43602
LeftToes  -23.9721 1.34695e-006 1.12385e-007
408
root  -46.1371 34.0858 37.6993 -171.101 -35.9825 179.605
RightUpLeg  -32.7076 -25.5886 13.8351
RightLeg  33.3174 -5.60624 -3.19333
RightFoot  -2.61434 -0.00315993 0.45552
RightToes  -18.947 -0.075667 -0.168303
Spine  -0.443694 -2.23184 -0.32723
Spine1  -0.935137 -4.45511 0.0163448
HEad  -59.1473 -27.5669 13.222
LeftShoulder1  -1.94126e-019 -3.10601e-018 -2.51263e-017
LeftArm  -9.5913 22.3097 -70.623
LeftForeArm  31.7465 -18.2207 -3.28399
LeftHand  -0.420322 0.00733251 9.13333
RightShoulder  -4.96962e-017 0 -2.36833e-017
RightArm  -32.6372 -21.4507 79.9677
RightForeArm  49.9841 16.3702 1.21014
RightHand  -0.222558 -3.55708 -13.4066
LeftUpLeg  -7.84718 7.96733 -0.438708
LeftLeg  25.0189 14.7906 5.6913
LeftFoot  -5.8864 -0.0865428 -1.52159
LeftToes  -26.5591 1.34695e-006 1.12385e-007
409
root  -46.815 33.9519 37.1606 -171.513 -33.5178 -178.945
RightUpLeg  -32.2575 -30.9618 19.3321
RightLeg  24.5463 -5.49606 -2.09453
RightFoot  -3.86555 -0.00195948 0.523555
RightToes  4.17172 0.00893544 0.0398156
Spine  -0.555549 -2.42243 0.0186225
Spine1  -1.15902 -4.89815 0.709456
HEad  -61.3857 -26.7596 13.7649
LeftShoulder1  -1.94126e-019 -3.10601e-018 -2.51263e-017
LeftArm  -7.4111 22.574 -69.5848
LeftForeArm  31.9238 -19.09 -3.44561
LeftHand  -0.430817 -0.248409 8.95802
RightShoulder  -4.96962e-017 0 -2.36833e-017
RightArm  -35.3562 -23.349 79.0932
RightForeArm  50.679 14.8529 1.25475
RightHand  -0.18196 -3.93106 -13.5209
LeftUpLeg  -8.45896 9.96618 0.297813
LeftLeg  28.8927 14.9135 6.90432
LeftFoot  -6.4722 -0.109046 -1.76688
LeftToes  -31.2684 1.34695e-006 1.12385e-007
410
root  -47.5797 33.7481 36.6124 -171.754 -29.6676 -178.466
RightUpLeg  -29.2762 -26.8499 18.4715
RightLeg  22.375 -11.4386 -3.83826
RightFoot  -6.51189 0.0520693 1.52866
RightToes  8.89256 0.0155232 0.0855173
Spine  -0.566804 -2.07658 0.117215
Spine1  -1.16907 -4.28857 0.906139
HEad  -63.2263 -26.2659 13.5379
LeftShoulder1  -1.94126e-019 -3.10601e-018 -2.51263e-017
LeftArm  -6.70732 22.1972 -68.9851
LeftForeArm  32.5643 -19.1557 -3.46278
LeftHand  -0.459791 -0.51449 9.14786
RightShoulder  -4.96962e-017 0 -2.36833e-017
RightArm  -39.8335 -24.6382 77.7816
RightForeArm  54.0818 12.4157 1.46592
RightHand  -0.18226 -4.01283 -14.3701
LeftUpLeg  -9.23547 13.1467 0.145745
LeftLeg  34.3078 14.7483 8.56539
LeftFoot  -5.85239 -0.0934663 -1.66679
LeftToes  -38.458 1.34695e-006 1.12385e-007
